<svg width="29" height="29" viewBox="0 0 29 29" fill="none" xmlns="http://www.w3.org/2000/svg">
<mask id="mask0_40_55" style="mask-type:alpha" maskUnits="userSpaceOnUse" x="0" y="0" width="29" height="29">
<rect x="0.819733" y="0.0209961" width="28" height="28" fill="#D9D9D9"/>
</mask>
<g mask="url(#mask0_40_55)">
<path d="M7.45337 15.3683L12.3993 16.825L14.5627 21.5052L15.1798 21.4599L19.3938 8.72211L7.40806 14.7513L7.45337 15.3683ZM7.19635 22.8525C5.97466 21.7979 5.02668 20.5751 4.35241 19.1839C3.67814 17.7927 3.28664 16.3567 3.17791 14.8757C3.06918 13.3948 3.24675 11.917 3.71061 10.4422C4.17447 8.96751 4.93368 7.6193 5.98825 6.39762C7.04282 5.17593 8.26568 4.22795 9.65685 3.55368C11.048 2.87941 12.4841 2.48791 13.965 2.37918C15.4459 2.27045 16.9238 2.44802 18.3985 2.91188C19.8732 3.37573 21.2214 4.13495 22.4431 5.18952C23.6648 6.24408 24.6128 7.46695 25.2871 8.85812C25.9613 10.2493 26.3528 11.6853 26.4616 13.1663C26.5703 14.6472 26.3927 16.125 25.9289 17.5998C25.465 19.0745 24.7058 20.4227 23.6512 21.6444C22.5966 22.8661 21.3738 23.8141 19.9826 24.4883C18.5915 25.1626 17.1554 25.5541 15.6745 25.6628C14.1935 25.7716 12.7157 25.594 11.241 25.1301C9.76624 24.6663 8.41804 23.9071 7.19635 22.8525ZM8.72103 21.0862C10.6934 22.7887 12.9548 23.5464 15.5053 23.3591C18.0558 23.1719 20.1824 22.0921 21.8849 20.1197C23.5875 18.1473 24.3451 15.8859 24.1579 13.3354C23.9706 10.7849 22.8908 8.65837 20.9184 6.95581C18.9461 5.25326 16.6846 4.49561 14.1341 4.68286C11.5836 4.87012 9.4571 5.94993 7.75455 7.92229C6.05199 9.89466 5.29434 12.1561 5.48159 14.7066C5.66885 17.2571 6.74866 19.3836 8.72103 21.0862Z" fill="#1C1B1F"/>
</g>
</svg>
