<svg width="27" height="28" viewBox="0 0 27 28" fill="none" xmlns="http://www.w3.org/2000/svg">
<path fill-rule="evenodd" clip-rule="evenodd" d="M0.957153 2.63839C0.957153 2.04326 1.15093 1.4725 1.49584 1.05168C1.84076 0.630856 2.30857 0.39444 2.79635 0.39444H24.8667C25.3545 0.39444 25.8223 0.630856 26.1673 1.05168C26.5122 1.4725 26.7059 2.04326 26.7059 2.63839C26.7059 3.23353 26.5122 3.80429 26.1673 4.22511C25.8223 4.64593 25.3545 4.88235 24.8667 4.88235H2.79635C2.30857 4.88235 1.84076 4.64593 1.49584 4.22511C1.15093 3.80429 0.957153 3.23353 0.957153 2.63839ZM0.957153 13.8582C0.957153 13.263 1.15093 12.6923 1.49584 12.2715C1.84076 11.8506 2.30857 11.6142 2.79635 11.6142H24.8667C25.3545 11.6142 25.8223 11.8506 26.1673 12.2715C26.5122 12.6923 26.7059 13.263 26.7059 13.8582C26.7059 14.4533 26.5122 15.0241 26.1673 15.4449C25.8223 15.8657 25.3545 16.1021 24.8667 16.1021H2.79635C2.30857 16.1021 1.84076 15.8657 1.49584 15.4449C1.15093 15.0241 0.957153 14.4533 0.957153 13.8582ZM0.957153 25.0779C0.957153 24.4828 1.15093 23.912 1.49584 23.4912C1.84076 23.0704 2.30857 22.834 2.79635 22.834H13.8315C14.3193 22.834 14.7871 23.0704 15.1321 23.4912C15.477 23.912 15.6707 24.4828 15.6707 25.0779C15.6707 25.6731 15.477 26.2438 15.1321 26.6647C14.7871 27.0855 14.3193 27.3219 13.8315 27.3219H2.79635C2.30857 27.3219 1.84076 27.0855 1.49584 26.6647C1.15093 26.2438 0.957153 25.6731 0.957153 25.0779Z" fill="white"/>
</svg>
